<svg width="82" height="82" viewBox="0 0 82 82" fill="none" xmlns="http://www.w3.org/2000/svg">
<path d="M79.7713 74.0832V63.9627C79.7713 60.8399 77.2904 58.3082 74.2299 58.3082H64.3118C61.2513 58.3082 58.7703 60.8399 58.7703 63.9627V74.0832C58.7703 77.2061 61.2513 79.7378 64.3118 79.7378H74.2299C77.2904 79.7378 79.7713 77.2061 79.7713 74.0832Z" fill="url(#paint0_linear_609_9)"/>
<path d="M58.1792 34.4502V43.3374C57.9744 47.0149 56.5545 50.5131 54.1511 53.2614L53.7881 53.5947C51.1027 56.0599 47.6698 57.5107 44.0625 57.7049H35.3894C33.8785 57.7049 32.4293 58.3175 31.3608 59.4077C30.2923 60.498 29.692 61.9768 29.692 63.5187V73.9241C29.692 75.4659 30.2923 76.9447 31.3608 78.035C32.4293 79.1252 33.8785 79.7378 35.3894 79.7378H45.5867C47.0978 79.7378 48.5469 79.1252 49.6153 78.035C50.6838 76.9447 51.2841 75.4659 51.2841 73.9241V65.0739C51.4746 61.3931 52.8963 57.8902 55.3123 55.1498L55.6389 54.7796C58.3291 52.3221 61.7591 50.8725 65.3644 50.6693H74.0739C75.5848 50.6693 77.034 50.0569 78.1025 48.9666C79.171 47.8762 79.7713 46.3975 79.7713 44.8556V34.4502C79.7713 32.9083 79.171 31.4296 78.1025 30.3394C77.034 29.2491 75.5848 28.6365 74.0739 28.6365H63.8764C62.3655 28.6365 60.9164 29.2491 59.848 30.3394C58.7795 31.4296 58.1792 32.9083 58.1792 34.4502Z" fill="url(#paint1_linear_609_9)"/>
<path d="M22.4759 75.5905V66.7869C22.7091 63.1223 24.199 59.6501 26.6944 56.9562L27.6847 55.9658C30.3993 53.5238 33.8693 52.0866 37.5155 51.8942H46.3192C47.8435 51.8845 49.3027 51.2747 50.3807 50.1968C51.4587 49.1187 52.0686 47.6596 52.0781 46.1351V37.3315C52.2311 33.697 53.6299 30.226 56.0397 27.5009L57.0301 26.5106C59.7446 24.0684 63.2146 22.6313 66.8608 22.4388H75.6276C77.155 22.4388 78.6199 21.832 79.7 20.7521C80.7799 19.6721 81.3867 18.2073 81.3867 16.6798V6.37222C81.3867 4.84496 80.7799 3.38 79.7 2.30012C78.6199 1.22007 77.155 0.613281 75.6276 0.613281H65.3202C63.7928 0.613281 62.3279 1.22007 61.2479 2.30012C60.1678 3.38 59.5611 4.84496 59.5611 6.37222V15.1392C59.3918 18.8411 57.9393 22.3687 55.4528 25.1167L54.4624 26.107C51.7431 28.5414 48.276 29.9774 44.6318 30.1786H35.828C34.3037 30.1882 32.8445 30.7981 31.7666 31.876C30.6886 32.9539 30.0788 34.4133 30.0691 35.9376V44.7412C29.8434 48.3471 28.409 51.7716 25.9975 54.462L25.0071 55.4523C22.2878 57.8867 18.8205 59.3227 15.1763 59.5239H6.37275C4.84824 59.5335 3.38915 60.1434 2.31115 61.2213C1.23315 62.2992 0.623486 63.7586 0.613792 65.2829V75.6271C0.623486 77.1516 1.23315 78.6109 2.31115 79.6888C3.38915 80.7667 4.84824 81.3766 6.37275 81.3862H16.717C18.2477 81.3765 19.7126 80.7616 20.7915 79.6758C21.8705 78.59 22.4761 77.1212 22.4759 75.5905Z" fill="url(#paint2_linear_609_9)"/>
<path d="M23.2302 17.6018V6.70273C23.2302 3.33961 20.7492 0.613281 17.6887 0.613281H7.77059C4.71011 0.613281 2.22926 3.33961 2.22926 6.70273V17.6018C2.22926 20.9649 4.71011 23.6913 7.77059 23.6913H17.6887C20.7492 23.6913 23.2302 20.9649 23.2302 17.6018Z" fill="url(#paint3_linear_609_9)"/>
<path d="M23.8215 45.9009V37.0506C24.0119 33.3698 25.4335 29.8669 27.8495 27.1266L28.1761 26.7563C30.8854 24.2832 34.3436 22.8326 37.9742 22.646H46.6836C48.1511 22.6277 49.5551 22.0323 50.603 20.9837C51.6508 19.9352 52.2618 18.5144 52.3085 17.0174V6.42695C52.3085 4.88501 51.7082 3.40637 50.6397 2.3161C49.5712 1.22583 48.1222 0.613281 46.6111 0.613281H36.4138C34.9027 0.613281 33.4536 1.22583 32.385 2.3161C31.3165 3.40637 30.7164 4.88501 30.7164 6.42695V15.3141C30.5116 18.9916 29.0917 22.4899 26.6883 25.2381L26.3254 25.5715C23.6399 28.0367 20.207 29.4875 16.5999 29.6816H7.92681C7.17546 29.6816 6.4317 29.8333 5.73818 30.1277C5.04451 30.4223 4.41481 30.8538 3.88526 31.3977C3.35571 31.9413 2.93682 32.5867 2.65266 33.2963C2.36851 34.006 2.22456 34.7659 2.22941 35.5324V45.9009C2.22941 47.4426 2.82955 48.9214 3.89802 50.0117C4.96648 51.102 6.41571 51.7145 7.92681 51.7145H18.1241C19.635 51.7145 21.0842 51.102 22.1527 50.0117C23.2212 48.9214 23.8215 47.4426 23.8215 45.9009Z" fill="url(#paint4_linear_609_9)"/>
<defs>
<linearGradient id="paint0_linear_609_9" x1="81.3867" y1="40.9997" x2="0.613792" y2="40.9997" gradientUnits="userSpaceOnUse">
<stop stop-color="#70AED9"/>
<stop offset="1" stop-color="#558EB8"/>
</linearGradient>
<linearGradient id="paint1_linear_609_9" x1="81.3867" y1="40.9997" x2="0.613792" y2="40.9997" gradientUnits="userSpaceOnUse">
<stop stop-color="#70AED9"/>
<stop offset="1" stop-color="#558EB8"/>
</linearGradient>
<linearGradient id="paint2_linear_609_9" x1="81.3867" y1="40.9997" x2="0.613792" y2="40.9997" gradientUnits="userSpaceOnUse">
<stop stop-color="#70AED9"/>
<stop offset="1" stop-color="#558EB8"/>
</linearGradient>
<linearGradient id="paint3_linear_609_9" x1="81.3867" y1="40.9997" x2="0.613792" y2="40.9997" gradientUnits="userSpaceOnUse">
<stop stop-color="#70AED9"/>
<stop offset="1" stop-color="#558EB8"/>
</linearGradient>
<linearGradient id="paint4_linear_609_9" x1="81.3867" y1="40.9997" x2="0.613792" y2="40.9997" gradientUnits="userSpaceOnUse">
<stop stop-color="#70AED9"/>
<stop offset="1" stop-color="#558EB8"/>
</linearGradient>
</defs>
</svg>
