<svg width="746" height="236" viewBox="0 0 746 236" fill="none" xmlns="http://www.w3.org/2000/svg">
<path fill-rule="evenodd" clip-rule="evenodd" d="M200.269 75.6568H198.923C191.838 75.6458 186.088 81.3845 186.088 88.4697V117.124C186.088 122.847 181.359 127.481 175.731 127.481C172.387 127.481 169.049 125.799 167.067 122.974L137.799 81.1748C135.372 77.7041 131.421 75.6348 127.144 75.6348C120.474 75.6348 114.47 81.3072 114.47 88.3096V117.13C114.47 122.853 109.78 127.488 104.113 127.488C100.757 127.488 97.4251 125.804 95.4436 122.979L62.6942 76.2086C61.9548 75.1547 60.2939 75.6734 60.2939 76.9646V101.955C60.2939 103.219 60.6802 104.444 61.4031 105.481L93.6286 151.508C95.5316 154.228 98.3411 156.248 101.58 156.981C109.685 158.824 117.146 152.584 117.146 144.632V115.828C117.146 110.106 121.781 105.471 127.503 105.471H127.52C130.969 105.471 134.202 107.153 136.183 109.979L165.45 151.773C167.884 155.249 171.631 157.312 176.1 157.312C182.92 157.312 188.764 151.635 188.764 144.638V115.822C188.764 110.101 193.399 105.465 199.121 105.465H200.264C200.981 105.465 201.561 104.886 201.561 104.169V76.948C201.561 76.2307 200.981 75.6513 200.264 75.6513L200.269 75.6568ZM368.287 97.2212H361.124C360.396 97.2212 359.805 97.8116 359.805 98.5401V155.983C359.805 156.711 360.396 157.302 361.124 157.302H368.287C369.015 157.302 369.606 156.711 369.606 155.983V98.5401C369.606 97.8116 369.015 97.2212 368.287 97.2212ZM360.887 75.6403H368.519C369.247 75.6403 369.837 76.2307 369.837 76.9591V86.3398C369.837 87.0681 369.247 87.6585 368.519 87.6585H360.887C360.158 87.6585 359.568 87.0681 359.568 86.3398V76.9591C359.568 76.2307 360.158 75.6403 360.887 75.6403ZM411.157 95.5879C403.107 95.5879 397.274 98.3855 393.538 102.475C392.34 103.689 390.271 102.838 390.271 101.134V98.5401C390.271 97.8116 389.68 97.2212 388.952 97.2212H381.911C381.183 97.2212 380.592 97.8116 380.592 98.5401V155.983C380.592 156.711 381.183 157.302 381.911 157.302H388.958C389.687 157.302 390.277 156.711 390.277 155.983V119.619C390.277 107.015 392.726 104.218 406.146 104.218C419.566 104.218 421.779 106.437 421.779 119.034V155.977C421.779 156.706 422.369 157.296 423.098 157.296H430.26C430.989 157.296 431.579 156.706 431.579 155.977V116.346C431.579 101.994 423.413 95.5768 411.162 95.5768V95.5879H411.157ZM484.326 103.291C485.523 104.505 487.593 103.656 487.593 101.95V76.9646C487.593 76.2362 488.183 75.6458 488.911 75.6458H495.958C496.686 75.6458 497.276 76.2362 497.276 76.9646V155.988C497.276 156.716 496.686 157.307 495.958 157.307H488.911C488.183 157.307 487.593 156.716 487.593 155.988V152.578C487.665 150.834 485.551 149.996 484.326 151.237C480.943 155.437 474.41 158.934 465.658 158.934C450.263 158.934 440.226 147.971 440.226 127.554C440.226 105.973 451.422 95.5879 466.006 95.5879C474.758 95.5879 481.06 99.0916 484.326 103.291ZM450.837 127.316C450.837 147.032 453.287 149.951 469.272 149.951C485.142 149.951 487.593 147.032 487.593 127.316C487.593 107.601 485.258 104.565 469.272 104.565C453.287 104.565 450.837 107.601 450.837 127.316ZM538.232 123.592L526.688 121.611C518.169 120.093 516.65 117.527 516.65 113.091C516.767 107.021 519.1 103.992 530.418 103.992C541.018 103.992 544.412 107.126 545.14 113.891C545.212 114.559 545.775 115.072 546.448 115.072H553.451C554.2 115.072 554.813 114.443 554.769 113.687C554.09 102.072 543.457 95.5823 530.771 95.5823C516.535 95.5823 507.088 103.164 507.088 114.018C507.088 123.934 514.791 128.254 524.006 130.004L536.725 132.338C543.728 133.623 546.061 135.958 546.061 140.388C546.061 147.506 543.611 150.542 531.594 150.542C519.575 150.542 516.254 147.076 515.481 140.052C515.409 139.384 514.846 138.876 514.173 138.876H507.127C506.387 138.876 505.785 139.489 505.802 140.228C506.139 152.744 517.484 158.946 531.003 158.946C545.703 158.946 555.851 151.363 555.851 139.925C555.851 129.893 548.148 125.341 538.232 123.592ZM589.228 150.31C602.295 150.31 604.745 147.513 604.745 134.909V98.5566C604.745 97.8282 605.336 97.2378 606.064 97.2378H613.227C613.955 97.2378 614.546 97.8282 614.546 98.5566V155.999C614.546 156.727 613.955 157.317 613.227 157.317H606.064C605.336 157.317 604.745 156.727 604.745 155.999V153.494C604.718 151.711 602.869 150.823 601.594 152.071C597.864 156.153 592.031 158.951 584.212 158.951C572.194 158.951 564.027 152.534 564.027 138.181V98.5511C564.027 97.8227 564.618 97.2323 565.346 97.2323H572.509C573.237 97.2323 573.828 97.8227 573.828 98.5511V135.494C573.828 148.092 576.162 150.31 589.228 150.31ZM671.855 97.2212V89.5181C671.855 86.4887 674.311 84.0332 677.34 84.0332H682.67C683.399 84.0332 683.989 83.4428 683.989 82.7144V76.9535C683.989 76.2252 683.399 75.6348 682.67 75.6348H678.974C668.472 75.6348 662.055 81.4673 662.055 91.5046V97.2212H654.291C647.41 97.2322 642.009 98.1759 638.405 102.475C637.081 103.727 635.254 102.788 635.254 100.968V98.5456C635.254 97.8172 634.664 97.2267 633.935 97.2267H626.773C626.044 97.2267 625.454 97.8172 625.454 98.5456V155.988C625.454 156.716 626.044 157.307 626.773 157.307H633.935C634.664 157.307 635.254 156.716 635.254 155.988V119.977C635.254 108.075 638.29 105.278 651.355 105.278H662.055V155.993C662.055 156.722 662.645 157.312 663.374 157.312H670.536C671.265 157.312 671.855 156.722 671.855 155.993V105.278H682.681C683.409 105.278 684 104.687 684 103.959V98.5511C684 97.8227 683.409 97.2323 682.681 97.2323H671.855V97.2212ZM319.927 142.32C320.182 143.374 321.125 144.119 322.206 144.119H322.212C323.288 144.119 324.226 143.384 324.485 142.342L340.913 76.6391C341.061 76.0487 341.591 75.6348 342.198 75.6348H350.398C351.275 75.6348 351.915 76.4625 351.695 77.3122L331.029 156.346C330.881 156.904 330.378 157.296 329.799 157.296H315.171C314.581 157.296 314.067 156.893 313.918 156.325L296.751 90.2133C296.487 89.1815 295.554 88.4587 294.483 88.4587H294.335C293.27 88.4587 292.338 89.1815 292.067 90.2133L274.906 156.325C274.756 156.899 274.243 157.296 273.653 157.296H259.025C258.445 157.296 257.937 156.904 257.794 156.346L237.129 77.3122C236.909 76.4625 237.549 75.6348 238.427 75.6348H246.626C247.233 75.6348 247.763 76.0487 247.911 76.6391L264.334 142.342C264.592 143.384 265.525 144.119 266.607 144.119C267.688 144.119 268.632 143.374 268.886 142.32L284.672 76.6501C284.817 76.0542 285.346 75.6348 285.958 75.6348H302.86C303.473 75.6348 304.002 76.0542 304.146 76.6501L319.927 142.32Z" fill="currentColor"/>
</svg>
